# xmcd CD database file
#
# Track frame offsets:
#	150
#	24405
#	46743
#	69265
#	96093
#	118328
#	141023
#	163990
#	187245
#	204273
#	221593
#	242953
#	264503
#	282608
#
# Disc length: 4007 seconds
#
# Revision: 1
# Processed by: cddbd v1.5.1PL2 Copyright (c) Steve Scherf et al.
# Submitted via: CDex 1.70beta2
#
DISCID=d70fa50e
DTITLE=Compilacion de Salsa - Grandes de la Salsa
DYEAR=1900
DGENRE=Salsa
TTITLE0=Carcel de mi amor
TTITLE1=Raquel
TTITLE2=Lo mejor de mi
TTITLE3=Como tu
TTITLE4=Ciudad, Ciudad
TTITLE5=Como si nada
TTITLE6=Alimentame
TTITLE7=Ceniza fria
TTITLE8=Contigo tengo todo
TTITLE9=mienteme amor
TTITLE10=Tu musica popular
TTITLE11=Amigo, Amiga
TTITLE12=Sacrificio de amor
TTITLE13=Isa
EXTD=
EXTT0=
EXTT1=
EXTT2=
EXTT3=
EXTT4=
EXTT5=
EXTT6=
EXTT7=
EXTT8=
EXTT9=
EXTT10=
EXTT11=
EXTT12=
EXTT13=
PLAYORDER=
